  0
SECTION
  2
HEADER
  9
$ACADVER
  1
AC1009
  9
$INSBASE
 10
0.0
 20
0.0
 30
0.0
  9
$EXTMIN
 10
0.0
 20
0.0
 30
0.0
  9
$EXTMAX
 10
0.0
 20
0.0
 30
0.0
  0
ENDSEC
  0
SECTION
  2
TABLES
  0
TABLE
  2
VPORT
 70
0
  0
ENDTAB
  0
TABLE
  2
LTYPE
 70
1
  0
LTYPE
  2
CONTINUOUS
 70
0
  3
Solid line
 72
65
 73
0
 40
0.0
  0
ENDTAB
  0
TABLE
  2
LAYER
 70
1
  0
LAYER
  2
0
 70
64
 62
7
  6
continuous
  0
ENDTAB
  0
TABLE
  2
STYLE
 70
1
  0
STYLE
  2
STANDARD
 70
0
 40
0
 41
1.0
 50
0.0
 71
0
 42
1
 3
ARIAL.TTF
 4

  0
ENDTAB
  0
TABLE
  2
VIEW
 70
0
  0
ENDTAB
  0
ENDSEC
  0
SECTION
  2
BLOCKS
  0
BLOCK
  8
0
  2
FILLET032
 70
0
 10
0.0
 20
0.0
 30
0.0
  3
FILLET032
  0
LINE
  8
0
 62
0
 10
-113.388144742
 20
102.304763187
 30
0.0
 11
-81.2254542606
 21
60.6284874977
 31
0.0
  0
ARC
  8
0
 62
0
 10
-111.013140333
 20
104.137617262
 30
0.0
 40
3.0
 50
135.0
 51
-142.341675819
  0
ARC
  8
0
 62
0
 10
-89.1421356237
 20
54.5189739168
 30
0.0
 40
10.0
 50
0.0
 51
37.6583241812
  0
LINE
  8
0
 62
0
 10
-106.258937605
 20
113.134460677
 30
0.0
 11
-113.134460677
 21
106.258937605
 31
0.0
  0
LINE
  8
0
 62
0
 10
-79.1421356237
 20
54.5189739168
 30
0.0
 11
-79.1421356237
 21
-54.5189739168
 31
0.0
  0
ARC
  8
0
 62
0
 10
-104.137617262
 20
111.013140333
 30
0.0
 40
3.0
 50
52.3416758188
 51
135.0
  0
ARC
  8
0
 62
0
 10
-89.1421356237
 20
-54.5189739168
 30
0.0
 40
10.0
 50
-37.6583241812
 51
0.0
  0
LINE
  8
0
 62
0
 10
-60.6284874977
 20
81.2254542606
 30
0.0
 11
-102.304763187
 21
113.388144742
 31
0.0
  0
LINE
  8
0
 62
0
 10
-81.2254542606
 20
-60.6284874977
 30
0.0
 11
-113.388144742
 21
-102.304763187
 31
0.0
  0
ARC
  8
0
 62
0
 10
-54.5189739168
 20
89.1421356237
 30
0.0
 40
10.0
 50
-127.658324181
 51
-90.0
  0
ARC
  8
0
 62
0
 10
-111.013140333
 20
-104.137617262
 30
0.0
 40
3.0
 50
142.341675819
 51
-135.0
  0
LINE
  8
0
 62
0
 10
54.5189739168
 20
79.1421356237
 30
0.0
 11
-54.5189739168
 21
79.1421356237
 31
0.0
  0
LINE
  8
0
 62
0
 10
-113.134460677
 20
-106.258937605
 30
0.0
 11
-106.258937605
 21
-113.134460677
 31
0.0
  0
ARC
  8
0
 62
0
 10
54.5189739168
 20
89.1421356237
 30
0.0
 40
10.0
 50
-90.0
 51
-52.3416758188
  0
ARC
  8
0
 62
0
 10
-104.137617262
 20
-111.013140333
 30
0.0
 40
3.0
 50
-135.0
 51
-52.3416758188
  0
LINE
  8
0
 62
0
 10
102.304763187
 20
113.388144742
 30
0.0
 11
60.6284874977
 21
81.2254542606
 31
0.0
  0
LINE
  8
0
 62
0
 10
-102.304763187
 20
-113.388144742
 30
0.0
 11
-60.6284874977
 21
-81.2254542606
 31
0.0
  0
ARC
  8
0
 62
0
 10
104.137617262
 20
111.013140333
 30
0.0
 40
3.0
 50
45.0
 51
127.658324181
  0
ARC
  8
0
 62
0
 10
-54.5189739168
 20
-89.1421356237
 30
0.0
 40
10.0
 50
90.0
 51
127.658324181
  0
LINE
  8
0
 62
0
 10
113.134460677
 20
106.258937605
 30
0.0
 11
106.258937605
 21
113.134460677
 31
0.0
  0
LINE
  8
0
 62
0
 10
-54.5189739168
 20
-79.1421356237
 30
0.0
 11
54.5189739168
 21
-79.1421356237
 31
0.0
  0
ARC
  8
0
 62
0
 10
111.013140333
 20
104.137617262
 30
0.0
 40
3.0
 50
-37.6583241812
 51
45.0
  0
ARC
  8
0
 62
0
 10
54.5189739168
 20
-89.1421356237
 30
0.0
 40
10.0
 50
52.3416758188
 51
90.0
  0
LINE
  8
0
 62
0
 10
81.2254542606
 20
60.6284874977
 30
0.0
 11
113.388144742
 21
102.304763187
 31
0.0
  0
LINE
  8
0
 62
0
 10
60.6284874977
 20
-81.2254542606
 30
0.0
 11
102.304763187
 21
-113.388144742
 31
0.0
  0
ARC
  8
0
 62
0
 10
89.1421356237
 20
54.5189739168
 30
0.0
 40
10.0
 50
142.341675819
 51
-180.0
  0
ARC
  8
0
 62
0
 10
104.137617262
 20
-111.013140333
 30
0.0
 40
3.0
 50
-127.658324181
 51
-45.0
  0
LINE
  8
0
 62
0
 10
79.1421356237
 20
-54.5189739168
 30
0.0
 11
79.1421356237
 21
54.5189739168
 31
0.0
  0
LINE
  8
0
 62
0
 10
106.258937605
 20
-113.134460677
 30
0.0
 11
113.134460677
 21
-106.258937605
 31
0.0
  0
ARC
  8
0
 62
0
 10
89.1421356237
 20
-54.5189739168
 30
0.0
 40
10.0
 50
-180.0
 51
-142.341675819
  0
ARC
  8
0
 62
0
 10
111.013140333
 20
-104.137617262
 30
0.0
 40
3.0
 50
-45.0
 51
37.6583241812
  0
LINE
  8
0
 62
0
 10
113.388144742
 20
-102.304763187
 30
0.0
 11
81.2254542606
 21
-60.6284874977
 31
0.0
  0
CIRCLE
  8
0
 62
0
 10
19.0
 20
-24.5
 30
0.0
 40
2.0
  0
CIRCLE
  8
0
 62
0
 10
19.0
 20
24.5
 30
0.0
 40
2.0
  0
CIRCLE
  8
0
 62
0
 10
-7.0
 20
24.5
 30
0.0
 40
2.0
  0
CIRCLE
  8
0
 62
0
 10
-7.0
 20
-24.5
 30
0.0
 40
2.0
  0
CIRCLE
  8
0
 62
0
 10
-10.0
 20
7.5
 30
0.0
 40
1.76776695297
  0
CIRCLE
  8
0
 62
0
 10
-10.0
 20
-7.5
 30
0.0
 40
1.76776695297
  0
CIRCLE
  8
0
 62
0
 10
10.0
 20
7.5
 30
0.0
 40
1.76776695297
  0
CIRCLE
  8
0
 62
0
 10
10.0
 20
-7.5
 30
0.0
 40
1.76776695297
  0
CIRCLE
  8
0
 62
0
 10
105.0
 20
105.0
 30
0.0
 40
1.5
  0
CIRCLE
  8
0
 62
0
 10
-105.0
 20
105.0
 30
0.0
 40
1.5
  0
CIRCLE
  8
0
 62
0
 10
105.0
 20
-105.0
 30
0.0
 40
1.5
  0
CIRCLE
  8
0
 62
0
 10
-105.0
 20
-105.0
 30
0.0
 40
1.5
  0
LINE
  8
0
 62
0
 10
-64.1421356237
 20
-25.8578643763
 30
0.0
 11
-64.1421356237
 21
25.8578643763
 31
0.0
  0
ARC
  8
0
 62
0
 10
-54.1421356237
 20
-25.8578643763
 30
0.0
 40
10.0
 50
-180.0
 51
-45.0
  0
ARC
  8
0
 62
0
 10
-54.1421356237
 20
25.8578643763
 30
0.0
 40
10.0
 50
45.0
 51
-180.0
  0
LINE
  8
0
 62
0
 10
-39.4747713039
 20
-25.3326356802
 30
0.0
 11
-47.0710678119
 21
-32.9289321881
 31
0.0
  0
LINE
  8
0
 62
0
 10
-47.0710678119
 20
32.9289321882
 30
0.0
 11
-39.4747713039
 21
25.3326356802
 31
0.0
  0
ARC
  8
0
 62
0
 10
-46.5458391158
 20
-18.2615678683
 30
0.0
 40
10.0
 50
-45.0
 51
21.4218215218
  0
ARC
  8
0
 62
0
 10
-46.5458391158
 20
18.2615678683
 30
0.0
 40
10.0
 50
-21.4218215218
 51
45.0
  0
ARC
  8
0
 62
0
 10
7.81597009336e-14
 20
8.881784197e-15
 30
0.0
 40
40.0
 50
158.578178478
 51
-158.578178478
  0
LINE
  8
0
 62
0
 10
25.8578643763
 20
-64.1421356237
 30
0.0
 11
-25.8578643763
 21
-64.1421356237
 31
0.0
  0
ARC
  8
0
 62
0
 10
25.8578643763
 20
-54.1421356237
 30
0.0
 40
10.0
 50
-90.0
 51
45.0
  0
ARC
  8
0
 62
0
 10
-25.8578643763
 20
-54.1421356237
 30
0.0
 40
10.0
 50
135.0
 51
-90.0
  0
LINE
  8
0
 62
0
 10
25.3326356802
 20
-39.4747713039
 30
0.0
 11
32.9289321881
 21
-47.0710678119
 31
0.0
  0
LINE
  8
0
 62
0
 10
-25.3326356802
 20
-39.4747713039
 30
0.0
 11
-32.9289321881
 21
-47.0710678119
 31
0.0
  0
ARC
  8
0
 62
0
 10
18.2615678683
 20
-46.5458391158
 30
0.0
 40
10.0
 50
45.0
 51
111.421821522
  0
ARC
  8
0
 62
0
 10
-18.2615678683
 20
-46.5458391158
 30
0.0
 40
10.0
 50
68.5781784782
 51
135.0
  0
ARC
  8
0
 62
0
 10
3.99680288865e-15
 20
1.7763568394e-14
 30
0.0
 40
40.0
 50
-111.421821522
 51
-68.5781784782
  0
LINE
  8
0
 62
0
 10
64.1421356237
 20
25.8578643763
 30
0.0
 11
64.1421356237
 21
-25.8578643763
 31
0.0
  0
ARC
  8
0
 62
0
 10
54.1421356237
 20
25.8578643763
 30
0.0
 40
10.0
 50
-0.0
 51
135.0
  0
ARC
  8
0
 62
0
 10
54.1421356237
 20
-25.8578643763
 30
0.0
 40
10.0
 50
-135.0
 51
0.0
  0
LINE
  8
0
 62
0
 10
47.0710678119
 20
32.9289321881
 30
0.0
 11
39.4747713039
 21
25.3326356802
 31
0.0
  0
LINE
  8
0
 62
0
 10
39.4747713039
 20
-25.3326356802
 30
0.0
 11
47.0710678119
 21
-32.9289321881
 31
0.0
  0
ARC
  8
0
 62
0
 10
46.5458391158
 20
18.2615678683
 30
0.0
 40
10.0
 50
135.0
 51
-158.578178478
  0
ARC
  8
0
 62
0
 10
46.5458391158
 20
-18.2615678683
 30
0.0
 40
10.0
 50
158.578178478
 51
-135.0
  0
ARC
  8
0
 62
0
 10
-7.1054273576e-14
 20
7.1054273576e-15
 30
0.0
 40
40.0
 50
-21.4218215218
 51
21.4218215218
  0
LINE
  8
0
 62
0
 10
-25.8578643763
 20
64.1421356237
 30
0.0
 11
25.8578643763
 21
64.1421356237
 31
0.0
  0
ARC
  8
0
 62
0
 10
-25.8578643763
 20
54.1421356237
 30
0.0
 40
10.0
 50
90.0
 51
-135.0
  0
ARC
  8
0
 62
0
 10
25.8578643763
 20
54.1421356237
 30
0.0
 40
10.0
 50
-45.0
 51
90.0
  0
LINE
  8
0
 62
0
 10
-32.9289321881
 20
47.0710678119
 30
0.0
 11
-25.3326356802
 21
39.4747713039
 31
0.0
  0
LINE
  8
0
 62
0
 10
32.9289321881
 20
47.0710678119
 30
0.0
 11
25.3326356802
 21
39.4747713039
 31
0.0
  0
ARC
  8
0
 62
0
 10
-18.2615678683
 20
46.5458391158
 30
0.0
 40
10.0
 50
-135.0
 51
-68.5781784782
  0
ARC
  8
0
 62
0
 10
18.2615678683
 20
46.5458391158
 30
0.0
 40
10.0
 50
-111.421821522
 51
-45.0
  0
ARC
  8
0
 62
0
 10
-8.43769498715e-15
 20
-1.7763568394e-14
 30
0.0
 40
40.0
 50
68.5781784782
 51
111.421821522
  0
ENDBLK
  0
ENDSEC
  0
SECTION
  2
ENTITIES
  0
INSERT
  2
FILLET032
  8
0
 62
0
 10
0.0
 20
0.0
 30
0.0
  0
ENDSEC
  0
EOF
